<svg width="24" height="24" viewBox="0 0 24 24" fill="none" xmlns="http://www.w3.org/2000/svg">
<path fill-rule="evenodd" clip-rule="evenodd" d="M3.59999 0.800049C2.85738 0.800049 2.14519 1.09505 1.62009 1.62015C1.09499 2.14525 0.799988 2.85744 0.799988 3.60005V19C0.799988 20.114 1.24249 21.1822 2.03014 21.9699C2.81779 22.7576 3.88608 23.2 4.99999 23.2C6.1139 23.2 7.18218 22.7576 7.96984 21.9699C8.75749 21.1822 9.19999 20.114 9.19999 19V3.60005C9.19999 2.85744 8.90499 2.14525 8.37989 1.62015C7.85478 1.09505 7.14259 0.800049 6.39999 0.800049H3.59999ZM4.99999 20.4C5.37129 20.4 5.72739 20.2525 5.98994 19.99C6.25249 19.7274 6.39999 19.3714 6.39999 19C6.39999 18.6287 6.25249 18.2726 5.98994 18.0101C5.72739 17.7475 5.37129 17.6 4.99999 17.6C4.62868 17.6 4.27259 17.7475 4.01004 18.0101C3.74749 18.2726 3.59999 18.6287 3.59999 19C3.59999 19.3714 3.74749 19.7274 4.01004 19.99C4.27259 20.2525 4.62868 20.4 4.99999 20.4ZM12 17.9402L18.86 11.0802C19.3849 10.5552 19.6798 9.84311 19.6798 9.10065C19.6798 8.35819 19.3849 7.64613 18.86 7.12105L16.879 5.14005C16.3539 4.61513 15.6418 4.32025 14.8994 4.32025C14.1569 4.32025 13.4449 4.61513 12.9198 5.14005L12 6.05985V17.9402ZM20.4 23.2H10.6994L19.0994 14.8H20.4C21.1426 14.8 21.8548 15.095 22.3799 15.6202C22.905 16.1453 23.2 16.8574 23.2 17.6V20.4C23.2 21.1427 22.905 21.8548 22.3799 22.3799C21.8548 22.905 21.1426 23.2 20.4 23.2Z" fill="#282938"/>
</svg>
