<svg width="20" height="26" viewBox="0 0 20 26" fill="none" xmlns="http://www.w3.org/2000/svg">
<path fill-rule="evenodd" clip-rule="evenodd" d="M11.82 0.464362C12.1042 0.553741 12.3525 0.731456 12.5287 0.97166C12.705 1.21186 12.8 1.50203 12.8 1.79996V8.79996H18.4C18.6561 8.79985 18.9073 8.86998 19.1263 9.00272C19.3453 9.13546 19.5237 9.32572 19.6421 9.5528C19.7604 9.77988 19.8143 10.0351 19.7977 10.2906C19.7811 10.5462 19.6947 10.7923 19.548 11.0022L9.74799 25.0022C9.57743 25.2465 9.33336 25.4301 9.05127 25.5261C8.76918 25.6222 8.46381 25.6257 8.17957 25.5362C7.89533 25.4467 7.64706 25.2689 7.47088 25.0286C7.2947 24.7882 7.1998 24.498 7.19999 24.2V17.2H1.59999C1.34391 17.2001 1.0927 17.1299 0.873699 16.9972C0.654701 16.8645 0.476305 16.6742 0.357928 16.4471C0.23955 16.22 0.185726 15.9648 0.202311 15.7093C0.218897 15.4537 0.305257 15.2076 0.451994 14.9978L10.252 0.997762C10.4228 0.753864 10.6669 0.57078 10.9489 0.475109C11.2309 0.379438 11.536 0.376164 11.82 0.465762V0.464362Z" fill="black"/>
</svg>
