<svg width="11" height="16" viewBox="0 0 11 16" fill="none" xmlns="http://www.w3.org/2000/svg">
<path d="M7.81922 4.06C7.68589 3.5 7.45255 3.08 7.11922 2.8C6.79922 2.52 6.33255 2.38 5.71922 2.38C4.79922 2.38 4.11922 2.75333 3.67922 3.5C3.25255 4.23333 3.03255 5.43333 3.01922 7.1C3.33922 6.56667 3.80589 6.15333 4.41922 5.86C5.03255 5.55333 5.69922 5.4 6.41922 5.4C7.28589 5.4 8.05255 5.58667 8.71922 5.96C9.38589 6.33333 9.90589 6.88 10.2792 7.6C10.6526 8.30667 10.8392 9.16 10.8392 10.16C10.8392 11.1067 10.6459 11.9533 10.2592 12.7C9.88589 13.4333 9.33255 14.0067 8.59922 14.42C7.86589 14.8333 6.99255 15.04 5.97922 15.04C4.59255 15.04 3.49922 14.7333 2.69922 14.12C1.91255 13.5067 1.35922 12.6533 1.03922 11.56C0.732552 10.4533 0.579219 9.09333 0.579219 7.48C0.579219 5.04 0.999219 3.2 1.83922 1.96C2.67922 0.706666 4.00589 0.079999 5.81922 0.079999C7.21922 0.079999 8.30589 0.459999 9.07922 1.22C9.85255 1.98 10.2992 2.92667 10.4192 4.06H7.81922ZM5.77922 7.7C5.07255 7.7 4.47922 7.90667 3.99922 8.32C3.51922 8.73333 3.27922 9.33333 3.27922 10.12C3.27922 10.9067 3.49922 11.5267 3.93922 11.98C4.39255 12.4333 5.02589 12.66 5.83922 12.66C6.55922 12.66 7.12589 12.44 7.53922 12C7.96589 11.56 8.17922 10.9667 8.17922 10.22C8.17922 9.44667 7.97255 8.83333 7.55922 8.38C7.15922 7.92667 6.56589 7.7 5.77922 7.7Z" fill="white"/>
</svg>
