<svg width="63" height="25" viewBox="0 0 63 25" fill="none" xmlns="http://www.w3.org/2000/svg">
<path d="M0 12.5C0 5.59644 5.59644 0 12.5 0H50.5C57.4036 0 63 5.59644 63 12.5V12.5C63 19.4036 57.4036 25 50.5 25H12.5C5.59644 25 0 19.4036 0 12.5V12.5Z" fill="#1C1E53"/>
<path d="M19.1441 6.63431C19.4141 5.80541 20.5868 5.80541 20.8559 6.63431L21.8189 9.59711C21.8778 9.77755 21.9921 9.93477 22.1457 10.0463C22.2992 10.1578 22.4841 10.218 22.6739 10.2181H25.7897C26.6618 10.2181 27.0236 11.3341 26.3189 11.8471L23.7989 13.6777C23.6451 13.7893 23.5305 13.9468 23.4716 14.1276C23.4128 14.3083 23.4127 14.5031 23.4713 14.6839L24.4343 17.6467C24.7043 18.4756 23.7548 19.1659 23.0483 18.6529L20.5283 16.8223C20.3746 16.7107 20.1895 16.6506 19.9996 16.6506C19.8096 16.6506 19.6245 16.7107 19.4708 16.8223L16.9508 18.6529C16.2452 19.1659 15.2966 18.4756 15.5657 17.6467L16.5287 14.6839C16.5874 14.5031 16.5873 14.3083 16.5284 14.1276C16.4696 13.9468 16.355 13.7893 16.2011 13.6777L13.682 11.848C12.9773 11.335 13.34 10.219 14.2112 10.219H17.3261C17.5161 10.2191 17.7012 10.159 17.8549 10.0475C18.0086 9.93592 18.1231 9.77859 18.182 9.59801L19.145 6.63521L19.1441 6.63431Z" fill="#FCD980"/>
<path d="M33.552 15.176V14.144L37.584 8.36H39.24V13.988H40.356V15.176H39.24V17H37.896V15.176H33.552ZM37.956 9.752L35.124 13.988H37.956V9.752ZM43.1695 15.356L41.7175 18.668H40.8295L41.6815 15.356H43.1695ZM45.8888 14.624C45.9688 15.024 46.1408 15.328 46.4048 15.536C46.6688 15.744 47.0248 15.848 47.4728 15.848C48.0408 15.848 48.4568 15.624 48.7208 15.176C48.9848 14.728 49.1168 13.964 49.1168 12.884C48.9248 13.156 48.6528 13.368 48.3008 13.52C47.9568 13.664 47.5808 13.736 47.1728 13.736C46.6528 13.736 46.1808 13.632 45.7568 13.424C45.3328 13.208 44.9968 12.892 44.7488 12.476C44.5088 12.052 44.3888 11.54 44.3888 10.94C44.3888 10.06 44.6448 9.36 45.1568 8.84C45.6768 8.312 46.3888 8.048 47.2928 8.048C48.3808 8.048 49.1528 8.412 49.6088 9.14C50.0728 9.86 50.3048 10.968 50.3048 12.464C50.3048 13.496 50.2168 14.34 50.0408 14.996C49.8728 15.652 49.5768 16.148 49.1528 16.484C48.7288 16.82 48.1408 16.988 47.3888 16.988C46.5328 16.988 45.8728 16.764 45.4088 16.316C44.9448 15.868 44.6848 15.304 44.6288 14.624H45.8888ZM47.4128 12.584C47.8928 12.584 48.2688 12.436 48.5408 12.14C48.8208 11.836 48.9608 11.436 48.9608 10.94C48.9608 10.388 48.8128 9.96 48.5168 9.656C48.2288 9.344 47.8328 9.188 47.3288 9.188C46.8248 9.188 46.4248 9.348 46.1288 9.668C45.8408 9.98 45.6968 10.392 45.6968 10.904C45.6968 11.392 45.8368 11.796 46.1168 12.116C46.4048 12.428 46.8368 12.584 47.4128 12.584Z" fill="white"/>
</svg>
