<svg width="24" height="24" viewBox="0 0 24 24" fill="none" xmlns="http://www.w3.org/2000/svg">
<path fill-rule="evenodd" clip-rule="evenodd" d="M12 23.2C14.9704 23.2 17.8192 22.0201 19.9196 19.9196C22.02 17.8192 23.2 14.9705 23.2 12C23.2 9.02962 22.02 6.18086 19.9196 4.08045C17.8192 1.98005 14.9704 0.800049 12 0.800049C9.02956 0.800049 6.1808 1.98005 4.08039 4.08045C1.97998 6.18086 0.799988 9.02962 0.799988 12C0.799988 14.9705 1.97998 17.8192 4.08039 19.9196C6.1808 22.0201 9.02956 23.2 12 23.2ZM4.06479 9.23785C4.58459 7.74925 5.51209 6.43659 6.74159 5.44945C7.11679 6.02205 7.76359 6.40005 8.49999 6.40005C9.05694 6.40005 9.59109 6.6213 9.98491 7.01512C10.3787 7.40895 10.6 7.94309 10.6 8.50005V9.20005C10.6 9.94265 10.895 10.6548 11.4201 11.1799C11.9452 11.705 12.6574 12 13.4 12C14.1426 12 14.8548 11.705 15.3799 11.1799C15.905 10.6548 16.2 9.94265 16.2 9.20005C16.1998 8.57344 16.4097 7.96487 16.7963 7.4717C17.1829 6.97854 17.7237 6.62929 18.3322 6.47985C19.6682 8.00818 20.4031 9.97008 20.4 12C20.4 12.476 20.3608 12.945 20.2838 13.4H19C18.2574 13.4 17.5452 13.695 17.0201 14.2201C16.495 14.7453 16.2 15.4574 16.2 16.2V19.2758C14.9236 20.0144 13.4746 20.4022 12 20.4V17.6C12 16.8574 11.705 16.1453 11.1799 15.6202C10.6548 15.095 9.94259 14.8 9.19999 14.8C8.45738 14.8 7.74519 14.505 7.22009 13.9799C6.69499 13.4548 6.39999 12.7427 6.39999 12C6.40024 11.3378 6.16578 10.697 5.73825 10.1913C5.31072 9.68559 4.7178 9.34777 4.06479 9.23785Z" fill="black"/>
</svg>
